<svg xmlns="http://www.w3.org/2000/svg" class="h-full w-full" viewBox="0 0 350 160"><line x1="105" x2="175" y1="80" y2="20" stroke="red"></line><line x1="245" x2="175" y1="80" y2="20" stroke="#6b6b6b"></line><line x1="70" x2="105" y1="140" y2="80" stroke="#6b6b6b"></line><line x1="140" x2="105" y1="140" y2="80" stroke="#6b6b6b"></line><line x1="210" x2="245" y1="140" y2="80" stroke="red"></line><g><rect x="156.94580078125" y="5" ry="15" width="36.1083984375" height="30" fill="#0cb1c2"></rect><text x="175" y="21" fill="#fafafa" font-size="14" text-anchor="middle" dominant-baseline="middle">F</text></g><g><rect x="86.6650390625" y="65" ry="15" width="36.669921875" height="30" fill="#0cb1c2"></rect><text x="105" y="81" fill="#fafafa" font-size="14" text-anchor="middle" dominant-baseline="middle">B</text></g><g><rect x="226.6650390625" y="65" ry="15" width="36.669921875" height="30" fill="#0cb1c2"></rect><text x="245" y="81" fill="#fafafa" font-size="14" text-anchor="middle" dominant-baseline="middle">K</text></g><g><rect x="51.6650390625" y="125" ry="15" width="36.669921875" height="30" fill="#0cb1c2"></rect><text x="70" y="141" fill="#fafafa" font-size="14" text-anchor="middle" dominant-baseline="middle">A</text></g><g><rect x="121.38916015625" y="125" ry="15" width="37.2216796875" height="30" fill="#0cb1c2"></rect><text x="140" y="141" fill="#fafafa" font-size="14" text-anchor="middle" dominant-baseline="middle">C</text></g><g><rect x="191.38916015625" y="125" ry="15" width="37.2216796875" height="30" fill="#0cb1c2"></rect><text x="210" y="141" fill="#fafafa" font-size="14" text-anchor="middle" dominant-baseline="middle">H</text></g></svg>